<svg width="60" height="40" viewBox="0 0 60 40" fill="white" xmlns="http://www.w3.org/2000/svg">
<path d="M32 12.4998H34V2.49981H32C29.7906 2.49981 28 4.73809 28 7.4998C28 10.2615 29.7906 12.4998 32 12.4998ZM20 32.4998C20 35.2615 21.7906 37.4998 24 37.4998H26V27.4998H24C21.7906 27.4998 20 29.738 20 32.4998ZM41.0912 22.4998C38.9094 22.4998 36.3312 23.5248 34.5456 24.9998C32.9962 26.2795 31.7631 27.4998 28 27.4998V37.4998L31.5956 38.7474C33.2337 39.3162 34.9087 39.7724 36.615 39.9232C38.6581 40.1037 40.715 39.9755 42.7138 39.4388C49.5563 37.6013 52 33.5326 52 29.9998C52 24.9998 46.7387 22.4998 41.0912 22.4998V22.4998ZM50.7138 0.561532C48.715 0.0248137 46.6581 -0.104092 44.615 0.0771574C42.9087 0.227938 41.2337 0.684188 39.5956 1.25216L36 2.49981V12.4998C39.7625 12.4998 40.9963 13.7201 42.5456 14.9998C44.3313 16.4748 46.9094 17.4998 49.0912 17.4998C54.7387 17.4998 60 14.9998 60 9.9998C60 6.46699 57.5563 2.39825 50.7138 0.561532V0.561532Z" fill="white"/>
<path d="M18.5714 14.8571H12.1429V8.42857C12.1429 7.63973 11.5031 7 10.7143 7H9.28571C8.49688 7 7.85714 7.63973 7.85714 8.42857V14.8571H1.42857C0.639732 14.8571 0 15.4969 0 16.2857V17.7143C0 18.5031 0.639732 19.1429 1.42857 19.1429H7.85714V25.5714C7.85714 26.3603 8.49688 27 9.28571 27H10.7143C11.5031 27 12.1429 26.3603 12.1429 25.5714V19.1429H18.5714C19.3603 19.1429 20 18.5031 20 17.7143V16.2857C20 15.4969 19.3603 14.8571 18.5714 14.8571Z" fill="white"/>
</svg>
